<?xml version="1.0" encoding="UTF-8" standalone="no"?>
<!-- Created with Inkscape (http://www.inkscape.org/) -->

<svg
   xmlns:dc="http://purl.org/dc/elements/1.1/"
   xmlns:cc="http://creativecommons.org/ns#"
   xmlns:rdf="http://www.w3.org/1999/02/22-rdf-syntax-ns#"
   xmlns:svg="http://www.w3.org/2000/svg"
   xmlns="http://www.w3.org/2000/svg"
   xmlns:sodipodi="http://sodipodi.sourceforge.net/DTD/sodipodi-0.dtd"
   xmlns:inkscape="http://www.inkscape.org/namespaces/inkscape"
   width="58.564877mm"
   height="58.564922mm"
   viewBox="0 0 207.51334 207.5135"
   id="svg2"
   version="1.1"
   inkscape:version="0.91 r13725"
   sodipodi:docname="diamond.svg">
  <defs
     id="defs4" />
  <sodipodi:namedview
     id="base"
     pagecolor="#ffffff"
     bordercolor="#666666"
     borderopacity="1.0"
     inkscape:pageopacity="0.0"
     inkscape:pageshadow="2"
     inkscape:zoom="0.7"
     inkscape:cx="271.81055"
     inkscape:cy="121.79888"
     inkscape:document-units="px"
     inkscape:current-layer="layer1"
     showgrid="false"
     inkscape:window-width="1360"
     inkscape:window-height="705"
     inkscape:window-x="-8"
     inkscape:window-y="-8"
     inkscape:window-maximized="1"
     fit-margin-top="0"
     fit-margin-left="0"
     fit-margin-right="0"
     fit-margin-bottom="0" />
  <metadata
     id="metadata7">
    <rdf:RDF>
      <cc:Work
         rdf:about="">
        <dc:format>image/svg+xml</dc:format>
        <dc:type
           rdf:resource="http://purl.org/dc/dcmitype/StillImage" />
        <dc:title></dc:title>
      </cc:Work>
    </rdf:RDF>
  </metadata>
  <style>.diamondFill{fill : #fff}</style>
  <g
     inkscape:label="Layer 1"
     inkscape:groupmode="layer"
     id="layer1"
     transform="translate(-3.1553749,-3.1288508)">
    <path
       style="opacity:1;fill-opacity:1;stroke:none;stroke-width:8;stroke-linecap:butt;stroke-linejoin:miter;stroke-miterlimit:4;stroke-dasharray:none;stroke-dashoffset:0;stroke-opacity:1"
       d="m 106.91303,3.1288508 c -0.48416,0 -0.96887,0.18566 -1.33985,0.55664 L 3.7118449,105.54682 c -0.74196,0.74197 -0.74196,1.93773 0,2.67969 L 105.57318,210.08588 c 0.74197,0.74197 1.93577,0.74197 2.67774,0 L 210.11224,108.22651 c 0.74197,-0.74197 0.74197,-1.93772 0,-2.67969 L 108.25092,3.6854908 c -0.37098,-0.37098 -0.85374,-0.55664 -1.33789,-0.55664 z m 0,17.3027402 c 0.48415,0 0.9669,0.18565 1.33789,0.55664 l 84.55859,84.558589 c 0.74196,0.74196 0.74197,1.93772 0,2.67969 l -84.55859,84.55859 c -0.74197,0.74197 -1.93578,0.74196 -2.67774,0 L 21.014585,108.22651 c -0.74197,-0.74197 -0.74197,-1.93772 0,-2.67969 L 105.57318,20.988231 c 0.37098,-0.37098 0.85569,-0.55664 1.33985,-0.55664 z"
       id="rect4142"
       class="diamondFill"
       inkscape:connector-curvature="0" />
    <path
       style="opacity:1;fill-opacity:1;stroke:none;stroke-width:8;stroke-linecap:butt;stroke-linejoin:miter;stroke-miterlimit:4;stroke-dasharray:none;stroke-dashoffset:0;stroke-opacity:1"
       d="M 40.560657,105.54712 105.57282,40.534959 c 0.74196,-0.741966 1.93662,-0.74196 2.67858,0 l 65.01216,65.012161 c 0.74196,0.74196 0.74196,1.93661 0,2.67857 l -65.01216,65.01216 c -0.74197,0.74197 -1.93661,0.74197 -2.67858,0 L 40.560657,108.22569 c -0.74196,-0.74196 -0.741966,-1.93661 0,-2.67857 z"
       id="rect4146"
       class="diamondFill"
       inkscape:connector-curvature="0" />
  </g>
</svg>
