<?xml version="1.0" encoding="UTF-8" standalone="no"?>
<!-- Generator: Adobe Illustrator 12.0.0, SVG Export Plug-In . SVG Version: 6.00 Build 51448)  -->

<svg
   xmlns:dc="http://purl.org/dc/elements/1.1/"
   xmlns:cc="http://creativecommons.org/ns#"
   xmlns:rdf="http://www.w3.org/1999/02/22-rdf-syntax-ns#"
   xmlns:svg="http://www.w3.org/2000/svg"
   xmlns="http://www.w3.org/2000/svg"
   xmlns:sodipodi="http://sodipodi.sourceforge.net/DTD/sodipodi-0.dtd"
   xmlns:inkscape="http://www.inkscape.org/namespaces/inkscape"
   version="1.1"
   id="Layer_1"
   width="143.723"
   height="87.004"
   viewBox="0 0 143.723 87.004"
   overflow="visible"
   enable-background="new 0 0 143.723 87.004"
   xml:space="preserve"
   inkscape:version="0.91 r13725"
   sodipodi:docname="logoW.svg"><metadata
     id="metadata59"><rdf:RDF><cc:Work
         rdf:about=""><dc:format>image/svg+xml</dc:format><dc:type
           rdf:resource="http://purl.org/dc/dcmitype/StillImage" /></cc:Work></rdf:RDF></metadata><defs
     id="defs57" /><sodipodi:namedview
     pagecolor="#ffffff"
     bordercolor="#666666"
     borderopacity="1"
     objecttolerance="10"
     gridtolerance="10"
     guidetolerance="10"
     inkscape:pageopacity="0"
     inkscape:pageshadow="2"
     inkscape:window-width="1536"
     inkscape:window-height="801"
     id="namedview55"
     showgrid="false"
     inkscape:zoom="2.1360533"
     inkscape:cx="71.861504"
     inkscape:cy="43.501999"
     inkscape:window-x="-8"
     inkscape:window-y="-8"
     inkscape:window-maximized="1"
     inkscape:current-layer="Layer_1" /><g
     id="g3"
     style="fill:#ffffff"><path
       d="M17.748,22.893H9.297l-1.639,5.523H0.71L9.98,0h3.532v0.02L13.532,0h3.533l9.29,28.416h-6.948L17.748,22.893z    M10.819,17.818h5.406l-2.654-8.821h-0.117L10.819,17.818z"
       id="path5"
       style="fill:#ffffff" /><path
       d="M34.971,23.341h12.197v5.074H28.374V0h6.597V23.341z"
       id="path7"
       style="fill:#ffffff" /><path
       d="M50.692,28.416V0h9.309c3.526,0,6.274,0.654,8.246,1.961s2.957,3.256,2.957,5.845c0,1.354-0.313,2.554-0.937,3.601   s-1.6,1.837-2.927,2.371c1.691,0.365,2.943,1.12,3.757,2.264c0.813,1.145,1.22,2.465,1.22,3.961c0,2.771-0.931,4.867-2.791,6.285   s-4.528,2.127-8.001,2.127H50.692z M57.289,11.847h2.596c1.587,0,2.771-0.276,3.552-0.83c0.78-0.553,1.171-1.376,1.171-2.469   c0-1.21-0.377-2.091-1.132-2.645c-0.755-0.553-1.913-0.83-3.474-0.83h-2.712V11.847z M57.289,16.218v7.123h4.235   c1.405,0,2.459-0.276,3.162-0.829c0.702-0.553,1.054-1.402,1.054-2.547c0-1.21-0.309-2.127-0.927-2.752s-1.636-0.956-3.054-0.995   h-0.215H57.289z"
       id="path9"
       style="fill:#ffffff" /><path
       d="M92.779,16.257H82.768v7.084H94.77v5.074H76.171V0H94.79v5.074H82.768v6.109h10.012V16.257z"
       id="path11"
       style="fill:#ffffff" /><path
       d="M105.066,17.525v10.89H98.47V0h9.895c3.292,0,5.9,0.761,7.826,2.284c1.925,1.522,2.888,3.604,2.888,6.245   c0,1.47-0.387,2.732-1.161,3.786c-0.774,1.054-1.916,1.913-3.425,2.576c1.743,0.494,2.996,1.317,3.757,2.469   c0.761,1.151,1.142,2.586,1.142,4.303v1.795c0,0.742,0.11,1.587,0.332,2.537c0.221,0.95,0.605,1.626,1.152,2.03v0.39h-6.812   c-0.521-0.403-0.858-1.112-1.015-2.127s-0.234-1.971-0.234-2.869v-1.717c0-1.353-0.358-2.387-1.073-3.103   c-0.716-0.716-1.763-1.074-3.142-1.074H105.066z M105.066,12.452h3.337c1.327,0,2.342-0.302,3.044-0.908   c0.703-0.605,1.054-1.474,1.054-2.605c0-1.158-0.361-2.091-1.083-2.8s-1.74-1.064-3.054-1.064h-3.298V12.452z"
       id="path13"
       style="fill:#ffffff" /><path
       d="M143.718,5.074h-7.514v23.341h-6.597V5.074h-7.377V0h21.487V5.074z"
       id="path15"
       style="fill:#ffffff" /></g><g
     id="g17"
     style="fill:#ffffff"><path
       d="M13.889,77.454v7.623h-3.355V64.97h7.706c2.219,0,3.957,0.573,5.213,1.72c1.256,1.146,1.885,2.653,1.885,4.522   c0,1.887-0.629,3.399-1.885,4.536s-2.994,1.705-5.213,1.705H13.889z M13.889,74.761h4.35c1.243,0,2.177-0.331,2.803-0.994   s0.939-1.505,0.939-2.527c0-1.021-0.313-1.873-0.939-2.555c-0.626-0.681-1.561-1.021-2.803-1.021h-4.35V74.761z"
       id="path19"
       style="fill:#ffffff" /><path
       d="M43.892,64.97v13.243c0,2.237-0.734,3.989-2.203,5.255c-1.469,1.266-3.363,1.898-5.683,1.898   c-2.283,0-4.143-0.633-5.579-1.898c-1.436-1.266-2.154-3.018-2.154-5.255V64.97h3.356v13.243c0,1.427,0.4,2.53,1.202,3.308   c0.801,0.778,1.859,1.167,3.176,1.167c1.362,0,2.458-0.389,3.287-1.167s1.243-1.88,1.243-3.308V64.97H43.892z"
       id="path21"
       style="fill:#ffffff" /><path
       d="M51.165,76.736v8.341h-3.356V64.97h6.918c2.237,0,3.968,0.507,5.192,1.52c1.224,1.013,1.836,2.458,1.836,4.336   c0,1.04-0.269,1.936-0.808,2.686c-0.538,0.751-1.323,1.352-2.354,1.802c1.133,0.359,1.95,0.944,2.451,1.754   c0.502,0.81,0.753,1.813,0.753,3.01v1.671c0,0.589,0.073,1.165,0.221,1.727s0.392,0.989,0.732,1.284v0.317h-3.453   c-0.368-0.304-0.603-0.778-0.705-1.422c-0.101-0.644-0.151-1.289-0.151-1.933v-1.616c0-1.031-0.297-1.85-0.891-2.458   c-0.594-0.607-1.402-0.911-2.424-0.911H51.165z M51.165,74.043h3.383c1.344,0,2.325-0.258,2.941-0.773s0.925-1.303,0.925-2.361   c0-1.013-0.304-1.807-0.912-2.382c-0.607-0.575-1.533-0.863-2.775-0.863h-3.563V74.043z"
       id="path23"
       style="fill:#ffffff" /><path
       d="M81.5,85.077h-3.356l-8.907-14.486l-0.083,0.028v14.458h-3.356V64.97h3.356l8.907,14.486l0.083-0.028V64.97H81.5V85.077z"
       id="path25"
       style="fill:#ffffff" /><path
       d="M96.188,80.381h-7.125l-1.546,4.695h-3.466l7.015-20.106h3.19l6.932,20.106h-3.466L96.188,80.381z M89.987,77.579h5.289   l-2.583-7.927h-0.083L89.987,77.579z"
       id="path27"
       style="fill:#ffffff" /><path
       d="M113.846,80.437h0.083l5.814-15.467h4.28v20.106h-3.355V70.632l-0.083-0.014l-5.537,14.458h-2.306l-5.634-14.734   l-0.083,0.027v14.707h-3.355V64.97h4.405L113.846,80.437z"
       id="path29"
       style="fill:#ffffff" /><path
       d="M138.724,80.381h-7.125l-1.546,4.695h-3.466l7.015-20.106h3.19l6.932,20.106h-3.466L138.724,80.381z M132.523,77.579h5.289   l-2.583-7.927h-0.083L132.523,77.579z"
       id="path31"
       style="fill:#ffffff" /></g><g
     id="g33"
     style="fill:#ffffff"><path
       d="M14.197,48.904v8.052h-3.545V35.717h8.14c2.344,0,4.179,0.605,5.507,1.816c1.327,1.211,1.991,2.804,1.991,4.777   c0,1.994-0.664,3.591-1.991,4.792c-1.328,1.201-3.163,1.802-5.507,1.802H14.197z M14.197,46.059h4.595c1.313,0,2.3-0.35,2.961-1.05   c0.661-0.7,0.992-1.59,0.992-2.67c0-1.079-0.331-1.979-0.992-2.698c-0.662-0.72-1.648-1.08-2.961-1.08h-4.595V46.059z"
       id="path35"
       style="fill:#ffffff" /><path
       d="M45.896,35.717v13.989c0,2.363-0.775,4.213-2.327,5.55c-1.551,1.338-3.552,2.006-6.002,2.006   c-2.412,0-4.376-0.668-5.894-2.006c-1.517-1.337-2.275-3.187-2.275-5.55V35.717h3.544v13.989c0,1.507,0.423,2.672,1.269,3.494   c0.846,0.822,1.964,1.232,3.355,1.232c1.439,0,2.596-0.411,3.472-1.232c0.875-0.822,1.313-1.986,1.313-3.494V35.717H45.896z"
       id="path37"
       style="fill:#ffffff" /><path
       d="M64.874,38.561H58.31v18.395h-3.545V38.561h-6.462v-2.844h16.571V38.561z"
       id="path39"
       style="fill:#ffffff" /><path
       d="M71.117,48.145v8.811h-3.545V35.717h7.309c2.363,0,4.191,0.535,5.484,1.605c1.293,1.069,1.94,2.596,1.94,4.58   c0,1.099-0.285,2.045-0.854,2.837s-1.398,1.427-2.487,1.904c1.196,0.379,2.06,0.997,2.589,1.853c0.53,0.855,0.795,1.916,0.795,3.18   v1.765c0,0.623,0.077,1.23,0.233,1.824c0.155,0.593,0.413,1.045,0.772,1.356v0.335h-3.646c-0.389-0.321-0.637-0.822-0.744-1.502   s-0.16-1.361-0.16-2.042v-1.707c0-1.089-0.314-1.955-0.941-2.597c-0.627-0.642-1.48-0.963-2.56-0.963H71.117z M71.117,45.301h3.574   c1.419,0,2.456-0.272,3.107-0.817c0.651-0.544,0.978-1.376,0.978-2.495c0-1.07-0.321-1.908-0.963-2.516s-1.619-0.912-2.932-0.912   h-3.764V45.301z"
       id="path41"
       style="fill:#ffffff" /><path
       d="M97.637,51.997H90.11l-1.634,4.959h-3.662l7.411-21.239h3.369l7.323,21.239h-3.661L97.637,51.997z M91.088,49.035h5.587   l-2.728-8.374h-0.087L91.088,49.035z"
       id="path43"
       style="fill:#ffffff" /><path
       d="M116.732,59.742h-13.376v-2.786h13.376V59.742z"
       id="path45"
       style="fill:#ffffff" /><path
       d="M130.211,59.742h-13.377v-2.786h13.377V59.742z"
       id="path47"
       style="fill:#ffffff" /><path
       d="M143.689,59.742h-13.377v-2.786h13.377V59.742z"
       id="path49"
       style="fill:#ffffff" /></g><g
     id="g51"
     style="fill:#ffffff"><rect
       y="33.668"
       width="2.564"
       height="53.336"
       id="rect53"
       style="fill:#ffffff" /></g></svg>